<svg width="24" height="24" viewBox="0 0 24 24" fill="none" xmlns="http://www.w3.org/2000/svg">
<path d="M6.5 6.625C6.01675 6.625 5.625 7.01675 5.625 7.5C5.625 7.98325 6.01675 8.375 6.5 8.375V6.625ZM14 8.375C14.4832 8.375 14.875 7.98325 14.875 7.5C14.875 7.01675 14.4832 6.625 14 6.625V8.375ZM6.5 10.625C6.01675 10.625 5.625 11.0168 5.625 11.5C5.625 11.9832 6.01675 12.375 6.5 12.375V10.625ZM11 12.375C11.4832 12.375 11.875 11.9832 11.875 11.5C11.875 11.0168 11.4832 10.625 11 10.625V12.375ZM6.5 14.625C6.01675 14.625 5.625 15.0168 5.625 15.5C5.625 15.9832 6.01675 16.375 6.5 16.375V14.625ZM9 16.375C9.48325 16.375 9.875 15.9832 9.875 15.5C9.875 15.0168 9.48325 14.625 9 14.625V16.375ZM6 3V3.875H15V3V2.125H6V3ZM3 18H3.875V6H3H2.125V18H3ZM18 6H17.125V12.1016H18H18.875V6H18ZM14 21V20.125H6V21V21.875H14V21ZM3 18H2.125C2.125 20.1401 3.8599 21.875 6 21.875V21V20.125C4.82639 20.125 3.875 19.1736 3.875 18H3ZM15 3V3.875C16.1736 3.875 17.125 4.82639 17.125 6H18H18.875C18.875 3.8599 17.1401 2.125 15 2.125V3ZM6 3V2.125C3.8599 2.125 2.125 3.8599 2.125 6H3H3.875C3.875 4.8264 4.8264 3.875 6 3.875V3ZM6.5 7.5V8.375H14V7.5V6.625H6.5V7.5ZM6.5 11.5V12.375H11V11.5V10.625H6.5V11.5ZM6.5 15.5V16.375H9V15.5V14.625H6.5V15.5ZM22 17H21.125C21.125 19.2782 19.2782 21.125 17 21.125V22V22.875C20.2447 22.875 22.875 20.2447 22.875 17H22ZM17 22V21.125C14.7218 21.125 12.875 19.2782 12.875 17H12H11.125C11.125 20.2447 13.7553 22.875 17 22.875V22ZM12 17H12.875C12.875 14.7218 14.7218 12.875 17 12.875V12V11.125C13.7553 11.125 11.125 13.7553 11.125 17H12ZM17 12V12.875C19.2782 12.875 21.125 14.7218 21.125 17H22H22.875C22.875 13.7553 20.2447 11.125 17 11.125V12ZM18 17H17.125C17.125 17.069 17.069 17.125 17 17.125V18V18.875C18.0355 18.875 18.875 18.0355 18.875 17H18ZM17 18V17.125C16.931 17.125 16.875 17.069 16.875 17H16H15.125C15.125 18.0355 15.9645 18.875 17 18.875V18ZM16 17H16.875C16.875 16.931 16.931 16.875 17 16.875V16V15.125C15.9645 15.125 15.125 15.9645 15.125 17H16ZM17 16V16.875C17.069 16.875 17.125 16.931 17.125 17H18H18.875C18.875 15.9645 18.0355 15.125 17 15.125V16Z" fill="#787878"/>
</svg>
