<svg width="24" height="24" viewBox="0 0 24 24" fill="none" xmlns="http://www.w3.org/2000/svg">
<path d="M3 8.95945V13C3 16.7712 3 18.6569 4.17158 19.8284C5.34315 21 7.22877 21 11 21H13C16.7712 21 18.6569 21 19.8284 19.8284C21 18.6569 21 16.7712 21 13V8.95945M3 8.95945H21M3 8.95945C3 6.61388 3 5.4411 3.61994 4.63318C3.77954 4.42518 3.96572 4.239 4.17372 4.07939C4.97524 3.46437 6.13586 3.4595 8.44444 3.45946M21 8.95945V8.90391C21 6.61155 21 5.46537 20.4064 4.66798C20.2324 4.43424 20.0252 4.2271 19.7915 4.05309C18.9941 3.45946 17.8479 3.45946 15.5556 3.45946M8.44444 4.91892V3.45946M8.44444 3.45946V2M8.44444 3.45946C8.46289 3.45946 8.4814 3.45946 8.49999 3.45946H15.5556M15.5556 3.45946V4.91892M15.5556 3.45946V2" stroke="#787878" stroke-width="1.75" stroke-linecap="round" stroke-linejoin="round"/>
</svg>
