<svg width="24" height="24" viewBox="0 0 24 24" fill="none" xmlns="http://www.w3.org/2000/svg">
<path d="M15 4L12 7L9 4M9 20L12 17L15 20M12 10C9.6618 10 7.54228 9.78131 5.94826 9.54847C4.44041 9.32822 3 10.4761 3 12C3 13.5239 4.44041 14.6718 5.94826 14.4515C7.54228 14.2187 9.6618 14 12 14C14.3382 14 16.4577 14.2187 18.0517 14.4515C19.5596 14.6718 21 13.5239 21 12C21 10.4761 19.5596 9.32822 18.0517 9.54847C16.4577 9.78131 14.3382 10 12 10Z" stroke="#787878" stroke-width="1.75" stroke-linecap="round" stroke-linejoin="round"/>
</svg>
