<svg width="24" height="24" viewBox="0 0 24 24" fill="none" xmlns="http://www.w3.org/2000/svg">
<path d="M10 12V18M14 12V18M5 8H19V19C19 20.6569 17.6569 22 16 22H8C6.34315 22 5 20.6569 5 19V8ZM19 4H5C3.89543 4 3 4.89543 3 6V7C3 7.55228 3.44772 8 4 8H20C20.5523 8 21 7.55228 21 7V6C21 4.89543 20.1046 4 19 4ZM14 4C14 3.46957 13.7893 2.96086 13.4142 2.58579C13.0391 2.21071 12.5304 2 12 2C11.4696 2 10.9609 2.21071 10.5858 2.58579C10.2107 2.96086 10 3.46957 10 4L14 4Z" stroke="#787878" stroke-width="1.75" stroke-linecap="round"/>
</svg>
