<svg width="24" height="24" viewBox="0 0 24 24" fill="none" xmlns="http://www.w3.org/2000/svg">
<path d="M9 5L12 2L15 5M15 19L12 22L9 19M12 16C14.6724 16 17.0592 15.7143 18.7022 15.4483C20.0611 15.2284 21 14.0343 21 12.6577V11.3423C21 9.96573 20.0611 8.77163 18.7022 8.55165C17.0592 8.28568 14.6724 8 12 8C9.32756 8 6.94079 8.28568 5.29778 8.55165C3.93887 8.77163 3 9.96573 3 11.3423V12.6577C3 14.0343 3.93886 15.2284 5.29778 15.4483C6.94079 15.7143 9.32756 16 12 16Z" stroke="#787878" stroke-width="1.75" stroke-linecap="round" stroke-linejoin="round"/>
</svg>
