<svg width="24" height="24" viewBox="0 0 24 24" fill="none" xmlns="http://www.w3.org/2000/svg">
<path d="M3.99927 6L3.12427 5.99984C3.12423 6.23193 3.21639 6.45453 3.38049 6.61866C3.54459 6.78279 3.76718 6.875 3.99927 6.875V6ZM3.99927 18L4.69889 17.4745H4.69889L3.99927 18ZM2.875 12C2.875 11.5168 2.48325 11.125 2 11.125C1.51675 11.125 1.125 11.5168 1.125 12H2.875ZM4.875 2.00016C4.87509 1.51691 4.48341 1.12509 4.00016 1.125C3.51691 1.12491 3.12509 1.51659 3.125 1.99984L4.875 2.00016ZM8 6.875C8.48325 6.875 8.875 6.48325 8.875 6C8.875 5.51675 8.48325 5.125 8 5.125V6.875ZM12.875 7C12.875 6.51675 12.4832 6.125 12 6.125C11.5168 6.125 11.125 6.51675 11.125 7H12.875ZM12 12H11.125C11.125 12.2321 11.2172 12.4546 11.3813 12.6187L12 12ZM14.3813 15.6187C14.723 15.9604 15.277 15.9604 15.6187 15.6187C15.9604 15.277 15.9604 14.723 15.6187 14.3813L14.3813 15.6187ZM22 12H21.125C21.125 17.0396 17.0396 21.125 12 21.125V22V22.875C18.0061 22.875 22.875 18.0061 22.875 12H22ZM12 2V2.875C17.0396 2.875 21.125 6.9604 21.125 12H22H22.875C22.875 5.9939 18.0061 1.125 12 1.125V2ZM3.99927 6L4.69889 6.52551C6.36515 4.30717 9.0152 2.875 12 2.875V2V1.125C8.44153 1.125 5.28221 2.83505 3.29965 5.47449L3.99927 6ZM12 22V21.125C9.0152 21.125 6.36515 19.6928 4.69889 17.4745L3.99927 18L3.29965 18.5255C5.28221 21.165 8.44153 22.875 12 22.875V22ZM3.99927 18L4.69889 17.4745C3.55342 15.9495 2.875 14.0552 2.875 12H2H1.125C1.125 14.4472 1.93436 16.7079 3.29965 18.5255L3.99927 18ZM4 2L3.125 1.99984L3.12427 5.99984L3.99927 6L4.87427 6.00016L4.875 2.00016L4 2ZM3.99927 6V6.875H8V6V5.125H3.99927V6ZM12 7H11.125V12H12H12.875V7H12ZM12 12L11.3813 12.6187L14.3813 15.6187L15 15L15.6187 14.3813L12.6187 11.3813L12 12Z" fill="#787878"/>
</svg>
