<svg width="24" height="24" viewBox="0 0 24 24" fill="none" xmlns="http://www.w3.org/2000/svg">
<path d="M12 17V11.5M12.5 7.49999H12M12.5 7.49999C12.5 7.36192 12.444 7.23692 12.3536 7.14644M12.5 7.49999C12.5 7.63807 12.444 7.76307 12.3536 7.85355M11.5 7.49999H12M11.5 7.49999C11.5 7.35255 11.5638 7.22001 11.6654 7.1285M11.5 7.49999C11.5 7.63807 11.556 7.76307 11.6465 7.85355M12 7.49999L11.6654 7.1285M12 7.49999L12.3536 7.14644M12 7.49999L12.3536 7.85355M12 7.49999L11.6465 7.85355M11.6654 7.1285C11.754 7.04862 11.8713 6.99999 12 6.99999C12.1381 6.99999 12.2631 7.05596 12.3536 7.14644M12.3536 7.85355C12.2631 7.94403 12.1381 7.99999 12 7.99999C11.8619 7.99999 11.7369 7.94403 11.6465 7.85355M22 12C22 17.5228 17.5228 22 12 22C6.47715 22 2 17.5228 2 12C2 6.47715 6.47715 2 12 2C17.5228 2 22 6.47715 22 12Z" stroke="#787878" stroke-width="1.75" stroke-linecap="round"/>
</svg>
