<svg width="24" height="24" viewBox="0 0 24 24" fill="none" xmlns="http://www.w3.org/2000/svg">
<path d="M12 12L4.58579 4.58579M12 12L19.4142 19.4142M12 12L19.4142 4.58579M12 12L4.58579 19.4142M4.58579 4.58579C4.94772 4.22386 5.44772 4 6 4H18C18.5523 4 19.0523 4.22386 19.4142 4.58579M4.58579 4.58579C4.22386 4.94772 4 5.44772 4 6V18C4 18.5523 4.22386 19.0523 4.58579 19.4142M19.4142 19.4142C19.7761 19.0523 20 18.5523 20 18V6C20 5.44772 19.7761 4.94772 19.4142 4.58579M19.4142 19.4142C19.0523 19.7761 18.5523 20 18 20H6C5.44772 20 4.94771 19.7761 4.58579 19.4142" stroke="#787878" stroke-width="1.75" stroke-linejoin="round"/>
</svg>
