<svg width="24" height="24" viewBox="0 0 24 24" fill="none" xmlns="http://www.w3.org/2000/svg">
<path d="M7.34742 20.2651L3.76209 16.7569C2.18823 15.2169 2.07205 12.7575 3.49402 11.082L3.69993 10.8394L10.0925 3.59553C10.7367 2.86555 11.6861 2.46313 12.671 2.50266L19.4338 2.7741C20.6088 2.82125 21.528 3.78155 21.4993 4.93184L21.319 12.1686C21.2969 13.052 20.8982 13.8861 20.2193 14.4687L13.3951 20.3259L13.1472 20.5274C11.4349 21.9187 8.92129 21.8051 7.34742 20.2651Z" stroke="#787878" stroke-width="1.75"/>
<path d="M17.6139 9.16171C17.6139 10.8186 16.2707 12.1617 14.6139 12.1617C12.957 12.1617 11.6139 10.8186 11.6139 9.16171C11.6139 7.50486 12.957 6.16171 14.6139 6.16171C16.2707 6.16171 17.6139 7.50486 17.6139 9.16171Z" stroke="#787878" stroke-width="1.75"/>
</svg>
