<svg width="24" height="24" viewBox="0 0 24 24" fill="none" xmlns="http://www.w3.org/2000/svg">
<path d="M13 12V11.125C12.5168 11.125 12.125 11.5168 12.125 12H13ZM12.125 17C12.125 17.4833 12.5168 17.875 13 17.875C13.4832 17.875 13.875 17.4833 13.875 17H12.125ZM20.125 21C20.125 21.4833 20.5168 21.875 21 21.875C21.4832 21.875 21.875 21.4833 21.875 21H20.125ZM2.125 21C2.125 21.4833 2.51675 21.875 3 21.875C3.48325 21.875 3.875 21.4833 3.875 21H2.125ZM21 17.875C21.4832 17.875 21.875 17.4833 21.875 17C21.875 16.5168 21.4832 16.125 21 16.125V17.875ZM4.3359 7.10941L3.85054 6.38137H3.85054L4.3359 7.10941ZM10.3359 3.10941L9.85054 2.38137V2.38137L10.3359 3.10941ZM13.6641 3.10941L13.1787 3.83745L13.6641 3.10941ZM20.5146 8.72805C20.9167 8.99611 21.46 8.88746 21.728 8.48537C21.9961 8.08328 21.8875 7.54002 21.4854 7.27197L20.5146 8.72805ZM18 12V11.125H13V12V12.875H18V12ZM13 12H12.125V17H13H13.875V12H13ZM21 15H20.125V21H21H21.875V15H21ZM18 12V12.875C19.1736 12.875 20.125 13.8264 20.125 15H21H21.875C21.875 12.8599 20.1401 11.125 18 11.125V12ZM3 21H3.875V17H3H2.125V21H3ZM3 17H3.875V9.60556H3H2.125V17H3ZM3 17V17.875H21V17V16.125H3V17ZM4.3359 7.10941L4.82126 7.83745L10.8213 3.83745L10.3359 3.10941L9.85054 2.38137L3.85054 6.38137L4.3359 7.10941ZM13.6641 3.10941L13.1787 3.83745L20.5146 8.72805L21 8.00001L21.4854 7.27197L14.1495 2.38137L13.6641 3.10941ZM10.3359 3.10941L10.8213 3.83745C11.535 3.3616 12.465 3.3616 13.1787 3.83745L13.6641 3.10941L14.1495 2.38137C12.8479 1.51363 11.1521 1.51363 9.85054 2.38137L10.3359 3.10941ZM3 9.60556H3.875C3.875 8.89506 4.23009 8.23157 4.82126 7.83745L4.3359 7.10941L3.85054 6.38137C2.77252 7.10005 2.125 8.30994 2.125 9.60556H3ZM10 12H9.125C9.125 12.6213 8.62132 13.125 8 13.125V14V14.875C9.58782 14.875 10.875 13.5878 10.875 12H10ZM8 14V13.125C7.37868 13.125 6.875 12.6213 6.875 12H6H5.125C5.125 13.5878 6.41218 14.875 8 14.875V14ZM6 12H6.875C6.875 11.3787 7.37868 10.875 8 10.875V10V9.12501C6.41218 9.12501 5.125 10.4122 5.125 12H6ZM8 10V10.875C8.62132 10.875 9.125 11.3787 9.125 12H10H10.875C10.875 10.4122 9.58782 9.12501 8 9.12501V10Z" fill="#787878"/>
</svg>
