<svg width="24" height="24" viewBox="0 0 24 24" fill="none" xmlns="http://www.w3.org/2000/svg">
<path d="M10.0996 3.4057C10.6734 1.53143 13.3266 1.53143 13.9004 3.4057C14.2661 4.60019 15.6301 5.16516 16.7333 4.5791C18.4643 3.65952 20.3405 5.53569 19.4209 7.26672C18.8348 8.36993 19.3998 9.73389 20.5943 10.0996C22.4686 10.6734 22.4686 13.3266 20.5943 13.9004C19.3998 14.2661 18.8348 15.6301 19.4209 16.7333C20.3405 18.4643 18.4643 20.3405 16.7333 19.4209C15.6301 18.8348 14.2661 19.3998 13.9004 20.5943C13.3266 22.4686 10.6734 22.4686 10.0996 20.5943C9.73389 19.3998 8.36993 18.8348 7.26672 19.4209C5.53569 20.3405 3.65952 18.4643 4.5791 16.7333C5.16516 15.6301 4.60019 14.2661 3.4057 13.9004C1.53143 13.3266 1.53143 10.6734 3.4057 10.0996C4.60019 9.73389 5.16516 8.36993 4.5791 7.26672C3.65952 5.53569 5.53569 3.65952 7.26672 4.5791C8.36993 5.16516 9.73389 4.60019 10.0996 3.4057Z" stroke="#787878" stroke-width="1.75"/>
<path d="M15.3333 12C15.3333 13.8409 13.8409 15.3333 12 15.3333C10.1591 15.3333 8.66667 13.8409 8.66667 12C8.66667 10.1591 10.1591 8.66667 12 8.66667C13.8409 8.66667 15.3333 10.1591 15.3333 12Z" stroke="#787878" stroke-width="1.75"/>
</svg>
