<svg width="24" height="24" viewBox="0 0 24 24" fill="none" xmlns="http://www.w3.org/2000/svg">
<path d="M12 7V12.5M11.5 16.5H12M11.5 16.5C11.5 16.6381 11.556 16.7631 11.6464 16.8536M11.5 16.5C11.5 16.3619 11.556 16.2369 11.6464 16.1465M12.5 16.5L12 16.5M12.5 16.5C12.5 16.6475 12.4362 16.78 12.3346 16.8715M12.5 16.5C12.5 16.3619 12.444 16.2369 12.3535 16.1465M12 16.5L12.3346 16.8715M12 16.5L11.6464 16.8536M12 16.5L11.6464 16.1465M12 16.5L12.3535 16.1465M12.3346 16.8715C12.246 16.9514 12.1287 17 12 17C11.8619 17 11.7369 16.944 11.6464 16.8536M11.6464 16.1465C11.7369 16.056 11.8619 16 12 16C12.1381 16 12.2631 16.056 12.3535 16.1465M2 12C2 6.47715 6.47715 2 12 2C17.5228 2 22 6.47715 22 12C22 17.5228 17.5228 22 12 22C6.47715 22 2 17.5228 2 12Z" stroke="#787878" stroke-width="1.75" stroke-linecap="round"/>
</svg>
