<svg width="24" height="24" viewBox="0 0 24 24" fill="none" xmlns="http://www.w3.org/2000/svg">
<path d="M6.5 6.625C6.01675 6.625 5.625 7.01675 5.625 7.5C5.625 7.98325 6.01675 8.375 6.5 8.375V6.625ZM14 8.375C14.4832 8.375 14.875 7.98325 14.875 7.5C14.875 7.01675 14.4832 6.625 14 6.625V8.375ZM6.5 10.625C6.01675 10.625 5.625 11.0168 5.625 11.5C5.625 11.9832 6.01675 12.375 6.5 12.375V10.625ZM11 12.375C11.4832 12.375 11.875 11.9832 11.875 11.5C11.875 11.0168 11.4832 10.625 11 10.625V12.375ZM6.5 14.625C6.01675 14.625 5.625 15.0168 5.625 15.5C5.625 15.9832 6.01675 16.375 6.5 16.375V14.625ZM9 16.375C9.48325 16.375 9.875 15.9832 9.875 15.5C9.875 15.0168 9.48325 14.625 9 14.625V16.375ZM15.6187 16.8813C15.277 16.5396 14.723 16.5396 14.3813 16.8813C14.0396 17.223 14.0396 17.777 14.3813 18.1187L15.6187 16.8813ZM16.5 19L15.8813 19.6187C16.0666 19.8041 16.3254 19.8966 16.5862 19.8707C16.8471 19.8449 17.0826 19.7035 17.228 19.4854L16.5 19ZM19.228 16.4854C19.4961 16.0833 19.3875 15.54 18.9854 15.272C18.5833 15.0039 18.04 15.1126 17.772 15.5146L19.228 16.4854ZM12.7566 21L13.4098 20.4177L12.7566 21ZM12.1669 20L11.341 20.289L12.1669 20ZM21.5 16H20.625V19H21.5H22.375V16H21.5ZM21.5 19H20.625C20.625 20.1736 19.6736 21.125 18.5 21.125V22V22.875C20.6401 22.875 22.375 21.1401 22.375 19H21.5ZM18.5 13V13.875C19.6736 13.875 20.625 14.8264 20.625 16H21.5H22.375C22.375 13.8599 20.6401 12.125 18.5 12.125V13ZM12 16H12.875C12.875 14.8264 13.8264 13.875 15 13.875V13V12.125C12.8599 12.125 11.125 13.8599 11.125 16H12ZM15 13V13.875H18V13V12.125H15V13ZM18 13V13.875H18.5V13V12.125H18V13ZM6.5 7.5V8.375H14V7.5V6.625H6.5V7.5ZM6.5 11.5V12.375H11V11.5V10.625H6.5V11.5ZM6.5 15.5V16.375H9V15.5V14.625H6.5V15.5ZM15 17.5L14.3813 18.1187L15.8813 19.6187L16.5 19L17.1187 18.3813L15.6187 16.8813L15 17.5ZM16.5 19L17.228 19.4854L19.228 16.4854L18.5 16L17.772 15.5146L15.772 18.5146L16.5 19ZM12 19.0132H12.875V16H12H11.125V19.0132H12ZM18.5 22V21.125H14.9868V22V22.875H18.5V22ZM14.9868 22V21.125C14.36 21.125 13.7978 20.853 13.4098 20.4177L12.7566 21L12.1035 21.5823C12.8095 22.3742 13.8403 22.875 14.9868 22.875V22ZM12.7566 21L13.4098 20.4177C13.2273 20.2131 13.0846 19.9735 12.9928 19.711L12.1669 20L11.341 20.289C11.5099 20.7716 11.7714 21.2097 12.1035 21.5823L12.7566 21ZM12.1669 20L12.9928 19.711C12.9167 19.4937 12.875 19.2592 12.875 19.0132H12H11.125C11.125 19.4587 11.2008 19.8885 11.341 20.289L12.1669 20ZM3 17H3.875V6H3H2.125V17H3ZM7 21V21.875H12.7566V21V20.125H7V21ZM6 3V3.875H15V3V2.125H6V3ZM18 6H17.125V13H18H18.875V6H18ZM15 3V3.875C16.1736 3.875 17.125 4.8264 17.125 6H18H18.875C18.875 3.8599 17.1401 2.125 15 2.125V3ZM3 6H3.875C3.875 4.8264 4.8264 3.875 6 3.875V3V2.125C3.8599 2.125 2.125 3.8599 2.125 6H3ZM3 17H2.125C2.125 19.6924 4.30761 21.875 7 21.875V21V20.125C5.27411 20.125 3.875 18.7259 3.875 17H3Z" fill="#787878"/>
</svg>
