<svg width="24" height="24" viewBox="0 0 24 24" fill="none" xmlns="http://www.w3.org/2000/svg">
<path d="M8 12C8 13.6569 6.65685 15 5 15C3.34315 15 2 13.6569 2 12C2 10.3431 3.34315 9 5 9C6.65685 9 8 10.3431 8 12ZM8 12C10.2091 12 12 10.2091 12 8V7.5C12 5.01472 14.0147 3 16.5 3H21.5M8 12C10.2091 12 12 13.7909 12 16V16.5C12 18.9853 14.0147 21 16.5 21H21.5M8 12C9.29822 12 10.5614 12.4211 11.6 13.2L12.4 13.8C13.4386 14.5789 14.7018 15 16 15H21.5M8 12C9.29822 12 10.5614 11.5789 11.6 10.8L12.4 10.2C13.4386 9.42107 14.7018 9 16 9H21.5" stroke="#787878" stroke-width="1.75" stroke-linecap="round"/>
</svg>
