<svg width="24" height="24" viewBox="0 0 24 24" fill="none" xmlns="http://www.w3.org/2000/svg">
<path d="M3 5C3 3.89543 3.89543 3 5 3H8C9.10457 3 10 3.89543 10 5V19C10 20.1046 9.10457 21 8 21H5C3.89543 21 3 20.1046 3 19V5Z" stroke="#787878" stroke-width="1.75"/>
<path d="M13 5C13 3.89543 13.8954 3 15 3H19C20.1046 3 21 3.89543 21 5V8.5C21 9.60457 20.1046 10.5 19 10.5H15C13.8954 10.5 13 9.60457 13 8.5V5Z" stroke="#787878" stroke-width="1.75"/>
<path d="M13 15.5C13 14.3954 13.8954 13.5 15 13.5H19C20.1046 13.5 21 14.3954 21 15.5V19C21 20.1046 20.1046 21 19 21H15C13.8954 21 13 20.1046 13 19V15.5Z" stroke="#787878" stroke-width="1.75"/>
</svg>
