<svg width="24" height="24" viewBox="0 0 24 24" fill="none" xmlns="http://www.w3.org/2000/svg">
<path d="M11 6.5V8.13333C11 9.16426 11.7835 10 12.75 10H16.25C17.2165 10 18 9.16426 18 8.13333V6.5M11 6.5V4.86667C11 3.83574 11.7835 3 12.75 3H16.25C17.2165 3 18 3.83574 18 4.86667V6.5M11 6.5L2.5 6.5M18 6.5L21.5 6.5M13 17.5V15.8667C13 14.8357 12.2165 14 11.25 14H7.75C6.7835 14 6 14.8357 6 15.8667L6 17.5M13 17.5V19.1333C13 20.1643 12.2165 21 11.25 21L7.75 21C6.7835 21 6 20.1643 6 19.1333L6 17.5M13 17.5L21.5 17.5M6 17.5H2.5" stroke="#787878" stroke-width="1.75" stroke-linecap="round"/>
</svg>
