<svg width="24" height="24" viewBox="0 0 24 24" fill="none" xmlns="http://www.w3.org/2000/svg">
<path d="M2 7V11.1724C2 15.3338 2.00001 17.4145 3.30175 18.7072C4.6035 20 6.69863 20 10.8889 20H13.1111C17.3014 20 19.3965 20 20.6983 18.7072C22 17.4145 22 15.3338 22 11.1724V7M2 7C2 5.34315 3.34315 4 5 4H19C20.6569 4 22 5.34315 22 7M2 7C6.56002 10.9153 8.84003 12.873 11.5396 13.0286C11.8463 13.0463 12.1537 13.0463 12.4604 13.0286C15.16 12.873 17.44 10.9153 22 7" stroke="#787878" stroke-width="1.75" stroke-linecap="round" stroke-linejoin="round"/>
</svg>
