<svg width="24" height="24" viewBox="0 0 24 24" fill="none" xmlns="http://www.w3.org/2000/svg">
<path d="M9.77778 14.2714H4.22222C2.99492 14.2714 2 13.2828 2 12.0633V6.36116C2 5.61376 2.38048 4.91709 3.01112 4.50975L6.34445 2.35675C7.0809 1.88108 8.03021 1.88108 8.76666 2.35675L12.1 4.50976C12.7306 4.91709 13.1111 5.61376 13.1111 6.36116V9.85511M16.4444 14.2714H18.6667V16.4796M7.55556 7.64695H9.77778V8.75103M14.6958 8.95343L10.8069 11.4126C10.1659 11.8179 9.77778 12.5205 9.77778 13.2755V19.7918C9.77778 21.0114 10.7727 22 12 22H19.7778C21.0051 22 22 21.0114 22 19.7918V13.2755C22 12.5205 21.6118 11.8179 20.9709 11.4126L17.082 8.95343C16.354 8.49312 15.4237 8.49312 14.6958 8.95343Z" stroke="#787878" stroke-width="1.75" stroke-linecap="round" stroke-linejoin="round"/>
</svg>
