<svg width="24" height="24" viewBox="0 0 24 24" fill="none" xmlns="http://www.w3.org/2000/svg">
<path d="M2.93391 6.45173L2.46749 5.71141L2.46749 5.71141L2.93391 6.45173ZM8.93391 2.67166L8.46749 1.93133L8.46749 1.93133L8.93391 2.67166ZM11.0661 2.67166L11.5325 1.93133V1.93133L11.0661 2.67166ZM17.0661 6.45173L17.5325 5.71141L17.5325 5.71141L17.0661 6.45173ZM9 10.875C9.48325 10.875 9.875 10.4833 9.875 10C9.875 9.51676 9.48325 9.12501 9 9.12501V10.875ZM6 10V9.12501C5.51675 9.12501 5.125 9.51676 5.125 10H6ZM5.125 13C5.125 13.4833 5.51675 13.875 6 13.875C6.48325 13.875 6.875 13.4833 6.875 13H5.125ZM15.6175 15.8813C15.2757 15.5396 14.7217 15.5396 14.38 15.8813C14.0383 16.223 14.0383 16.777 14.38 17.1187L15.6175 15.8813ZM16.9987 18.5L16.38 19.1187C16.7217 19.4604 17.2757 19.4604 17.6175 19.1187L16.9987 18.5ZM19.6175 17.1187C19.9592 16.777 19.9592 16.223 19.6175 15.8813C19.2757 15.5396 18.7217 15.5396 18.38 15.8813L19.6175 17.1187ZM2 18H2.875V8.14391H2H1.125V18H2ZM2.93391 6.45173L3.40032 7.19206L9.40032 3.41198L8.93391 2.67166L8.46749 1.93133L2.46749 5.71141L2.93391 6.45173ZM11.0661 2.67166L10.5997 3.41198L16.5997 7.19206L17.0661 6.45173L17.5325 5.71141L11.5325 1.93133L11.0661 2.67166ZM18 8.14391H17.125V12.1H18H18.875V8.14391H18ZM13 20V19.125H4V20V20.875H13V20ZM8.93391 2.67166L9.40032 3.41198C9.76678 3.18111 10.2332 3.18111 10.5997 3.41198L11.0661 2.67166L11.5325 1.93133C10.596 1.34133 9.40398 1.34133 8.46749 1.93133L8.93391 2.67166ZM2 18H1.125C1.125 19.5878 2.41218 20.875 4 20.875V20V19.125C3.37868 19.125 2.875 18.6213 2.875 18H2ZM17.0661 6.45173L16.5997 7.19206C16.9266 7.39805 17.125 7.75746 17.125 8.14391H18H18.875C18.875 7.15631 18.3681 6.23784 17.5325 5.71141L17.0661 6.45173ZM2 8.14391H2.875C2.875 7.75746 3.07335 7.39806 3.40032 7.19206L2.93391 6.45173L2.46749 5.71141C1.6319 6.23784 1.125 7.15631 1.125 8.14391H2ZM9 10V9.12501H6V10V10.875H9V10ZM6 10H5.125V13H6H6.875V10H6ZM22 17H21.125C21.125 19.2782 19.2782 21.125 17 21.125V22V22.875C20.2447 22.875 22.875 20.2447 22.875 17H22ZM17 22V21.125C14.7218 21.125 12.875 19.2782 12.875 17H12H11.125C11.125 20.2447 13.7553 22.875 17 22.875V22ZM12 17H12.875C12.875 14.7218 14.7218 12.875 17 12.875V12V11.125C13.7553 11.125 11.125 13.7553 11.125 17H12ZM17 12V12.875C19.2782 12.875 21.125 14.7218 21.125 17H22H22.875C22.875 13.7553 20.2447 11.125 17 11.125V12ZM14.9987 16.5L14.38 17.1187L16.38 19.1187L16.9987 18.5L17.6175 17.8813L15.6175 15.8813L14.9987 16.5ZM16.9987 18.5L17.6175 19.1187L19.6175 17.1187L18.9987 16.5L18.38 15.8813L16.38 17.8813L16.9987 18.5Z" fill="#787878"/>
</svg>
