<svg width="24" height="24" viewBox="0 0 24 24" fill="none" xmlns="http://www.w3.org/2000/svg">
<path d="M3 5C3 3.89543 3.95939 3 5.14286 3H8.35714C9.54061 3 10.5 3.89543 10.5 5V8.5C10.5 9.60457 9.54061 10.5 8.35714 10.5H5.14286C3.95939 10.5 3 9.60457 3 8.5V5Z" stroke="#787878" stroke-width="1.75"/>
<path d="M3 15.5C3 14.3954 3.95939 13.5 5.14286 13.5H8.35714C9.54061 13.5 10.5 14.3954 10.5 15.5V19C10.5 20.1046 9.54061 21 8.35714 21H5.14286C3.95939 21 3 20.1046 3 19V15.5Z" stroke="#787878" stroke-width="1.75"/>
<path d="M13.5 15.5C13.5 14.3954 14.4594 13.5 15.6429 13.5H18.8571C20.0406 13.5 21 14.3954 21 15.5V19C21 20.1046 20.0406 21 18.8571 21H15.6429C14.4594 21 13.5 20.1046 13.5 19V15.5Z" stroke="#787878" stroke-width="1.75"/>
<path d="M13.5 5C13.5 3.89543 14.4594 3 15.6429 3H18.8571C20.0406 3 21 3.89543 21 5V8.5C21 9.60457 20.0406 10.5 18.8571 10.5H15.6429C14.4594 10.5 13.5 9.60457 13.5 8.5V5Z" stroke="#787878" stroke-width="1.75"/>
</svg>
